<?xml version="1.0" encoding="UTF-8"?>
<svg width="20px" height="23px" viewBox="0 0 20 23" version="1.1" xmlns="http://www.w3.org/2000/svg" xmlns:xlink="http://www.w3.org/1999/xlink">
    <title>calendar-alt-regular</title>
    <g id="Page-1" stroke="none" stroke-width="1" fill="none" fill-rule="evenodd">
        <g id="Add_Team_Member" transform="translate(-711.000000, -1011.000000)" fill="#C8C9C7" fill-rule="nonzero">
            <g id="calendar-alt-regular" transform="translate(711.000000, 1011.000000)">
                <path d="M6.60714286,12.9044118 L4.82142857,12.9044118 C4.52678571,12.9044118 4.28571429,12.662454 4.28571429,12.3667279 L4.28571429,10.5744485 C4.28571429,10.2787224 4.52678571,10.0367647 4.82142857,10.0367647 L6.60714286,10.0367647 C6.90178571,10.0367647 7.14285714,10.2787224 7.14285714,10.5744485 L7.14285714,12.3667279 C7.14285714,12.662454 6.90178571,12.9044118 6.60714286,12.9044118 Z M11.4285714,12.3667279 L11.4285714,10.5744485 C11.4285714,10.2787224 11.1875,10.0367647 10.8928571,10.0367647 L9.10714286,10.0367647 C8.8125,10.0367647 8.57142857,10.2787224 8.57142857,10.5744485 L8.57142857,12.3667279 C8.57142857,12.662454 8.8125,12.9044118 9.10714286,12.9044118 L10.8928571,12.9044118 C11.1875,12.9044118 11.4285714,12.662454 11.4285714,12.3667279 Z M15.7142857,12.3667279 L15.7142857,10.5744485 C15.7142857,10.2787224 15.4732143,10.0367647 15.1785714,10.0367647 L13.3928571,10.0367647 C13.0982143,10.0367647 12.8571429,10.2787224 12.8571429,10.5744485 L12.8571429,12.3667279 C12.8571429,12.662454 13.0982143,12.9044118 13.3928571,12.9044118 L15.1785714,12.9044118 C15.4732143,12.9044118 15.7142857,12.662454 15.7142857,12.3667279 Z M11.4285714,16.6681985 L11.4285714,14.8759191 C11.4285714,14.580193 11.1875,14.3382353 10.8928571,14.3382353 L9.10714286,14.3382353 C8.8125,14.3382353 8.57142857,14.580193 8.57142857,14.8759191 L8.57142857,16.6681985 C8.57142857,16.9639246 8.8125,17.2058824 9.10714286,17.2058824 L10.8928571,17.2058824 C11.1875,17.2058824 11.4285714,16.9639246 11.4285714,16.6681985 Z M7.14285714,16.6681985 L7.14285714,14.8759191 C7.14285714,14.580193 6.90178571,14.3382353 6.60714286,14.3382353 L4.82142857,14.3382353 C4.52678571,14.3382353 4.28571429,14.580193 4.28571429,14.8759191 L4.28571429,16.6681985 C4.28571429,16.9639246 4.52678571,17.2058824 4.82142857,17.2058824 L6.60714286,17.2058824 C6.90178571,17.2058824 7.14285714,16.9639246 7.14285714,16.6681985 Z M15.7142857,16.6681985 L15.7142857,14.8759191 C15.7142857,14.580193 15.4732143,14.3382353 15.1785714,14.3382353 L13.3928571,14.3382353 C13.0982143,14.3382353 12.8571429,14.580193 12.8571429,14.8759191 L12.8571429,16.6681985 C12.8571429,16.9639246 13.0982143,17.2058824 13.3928571,17.2058824 L15.1785714,17.2058824 C15.4732143,17.2058824 15.7142857,16.9639246 15.7142857,16.6681985 Z M20,5.01838235 L20,20.7904412 C20,21.9778263 19.0401786,22.9411765 17.8571429,22.9411765 L2.14285714,22.9411765 C0.959821429,22.9411765 0,21.9778263 0,20.7904412 L0,5.01838235 C0,3.83099724 0.959821429,2.86764706 2.14285714,2.86764706 L4.28571429,2.86764706 L4.28571429,0.537683824 C4.28571429,0.241957721 4.52678571,0 4.82142857,0 L6.60714286,0 C6.90178571,0 7.14285714,0.241957721 7.14285714,0.537683824 L7.14285714,2.86764706 L12.8571429,2.86764706 L12.8571429,0.537683824 C12.8571429,0.241957721 13.0982143,0 13.3928571,0 L15.1785714,0 C15.4732143,0 15.7142857,0.241957721 15.7142857,0.537683824 L15.7142857,2.86764706 L17.8571429,2.86764706 C19.0401786,2.86764706 20,3.83099724 20,5.01838235 Z M17.8571429,20.5215993 L17.8571429,7.16911765 L2.14285714,7.16911765 L2.14285714,20.5215993 C2.14285714,20.6694623 2.26339286,20.7904412 2.41071429,20.7904412 L17.5892857,20.7904412 C17.7366071,20.7904412 17.8571429,20.6694623 17.8571429,20.5215993 Z" id="Shape"></path>
            </g>
        </g>
    </g>
</svg>