<svg xmlns="http://www.w3.org/2000/svg" width="15" height="11.25" viewBox="0 0 15 11.25"><defs><style>.a{fill:#545859;}</style></defs><path class="a" d="M13.594,64H1.406A1.406,1.406,0,0,0,0,65.406v8.438A1.406,1.406,0,0,0,1.406,75.25H13.594A1.406,1.406,0,0,0,15,73.844V65.406A1.406,1.406,0,0,0,13.594,64Zm0,1.406v1.2c-.657.535-1.7,1.367-3.943,3.12-.493.388-1.471,1.32-2.151,1.31-.68.011-1.658-.922-2.151-1.31-2.238-1.753-3.286-2.585-3.943-3.12v-1.2ZM1.406,73.844V68.406c.671.535,1.623,1.285,3.074,2.421.64.5,1.762,1.617,3.019,1.61s2.359-1.09,3.019-1.61c1.451-1.136,2.4-1.887,3.075-2.421v5.438Z" transform="translate(0 -64)"/></svg>