<?xml version="1.0" encoding="UTF-8"?>
<svg width="14px" height="19px" viewBox="0 0 14 19" version="1.1" xmlns="http://www.w3.org/2000/svg" xmlns:xlink="http://www.w3.org/1999/xlink">
    <title>file-pdf-regular</title>
    <g id="Page-1" stroke="none" stroke-width="1" fill="none" fill-rule="evenodd">
        <g id="Orders-Detail-" transform="translate(-1369.000000, -742.000000)" fill="#545859" fill-rule="nonzero">
            <g id="Order_Details" transform="translate(55.000000, 709.000000)">
                <g id="file-pdf-regular" transform="translate(1314.000000, 33.000000)">
                    <path d="M13.4859375,3.63600859 L10.4270833,0.523140012 C10.0989583,0.189220855 9.65416667,0 9.19114583,0 L1.75,0 C0.783854167,0.00371021285 0,0.801405975 0,1.78461238 L0,17.2190978 C0,18.2023042 0.783854167,19 1.75,19 L12.25,19 C13.2161458,19 14,18.2023042 14,17.2190978 L14,4.89748096 C14,4.42628393 13.8140625,3.96992775 13.4859375,3.63600859 Z M12.1078125,4.75278266 L9.33333333,4.75278266 L9.33333333,1.92931068 L12.1078125,4.75278266 Z M1.75,17.2190978 L1.75,1.78461238 L7.58333333,1.78461238 L7.58333333,5.64323374 C7.58333333,6.13669205 7.9734375,6.53368483 8.45833333,6.53368483 L12.25,6.53368483 L12.25,17.2190978 L1.75,17.2190978 Z M10.871875,11.887522 C10.4270833,11.4422964 9.15833333,11.5647335 8.52395833,11.6463581 C7.896875,11.2567858 7.47760417,10.7188049 7.18229167,9.92852958 C7.32447917,9.33118532 7.55052083,8.42218317 7.37916667,7.85081039 C7.22604167,6.87873462 6.00104167,6.97520016 5.82604167,7.63190783 C5.665625,8.2292521 5.81145833,9.06033978 6.08125,10.1214607 C5.71666667,11.0082015 5.1734375,12.1991798 4.790625,12.881859 C4.06145833,13.2640109 3.07708333,13.8539348 2.93125,14.5959773 C2.8109375,15.182191 3.87916667,16.6440148 5.70572917,13.4383909 C6.52239583,13.1638352 7.41197917,12.8262058 8.19947917,12.6926382 C8.88854167,13.0710799 9.69427083,13.3233743 10.2338542,13.3233743 C11.1635417,13.3233743 11.2546875,12.2770943 10.871875,11.887522 Z M3.64947917,14.7740676 C3.83541667,14.2657684 4.54270833,13.6795548 4.7578125,13.4754931 C4.06510417,14.5996876 3.64947917,14.8000391 3.64947917,14.7740676 Z M6.62447917,7.70240187 C6.89427083,7.70240187 6.86875,8.8933802 6.69010417,9.21616872 C6.5296875,8.70044913 6.53333333,7.70240187 6.62447917,7.70240187 L6.62447917,7.70240187 Z M5.73489583,12.7705526 C6.08854167,12.1435267 6.39114583,11.3977739 6.63541667,10.7410662 C6.93802083,11.3013083 7.32447917,11.7502441 7.7328125,12.0581918 C6.97447917,12.2177309 6.31458333,12.5442296 5.73489583,12.7705526 L5.73489583,12.7705526 Z M10.5328125,12.585042 C10.5328125,12.585042 10.3505208,12.8076548 9.17291667,12.2956454 C10.4526042,12.1991798 10.6640625,12.4959969 10.5328125,12.585042 Z" id="Shape"></path>
                </g>
            </g>
        </g>
    </g>
</svg>