<svg xmlns="http://www.w3.org/2000/svg" width="16" height="16" viewBox="0 0 16 16"><defs><style>.a{fill:#545859;}</style></defs><path class="a" d="M15.132,10.307,11.958,8.946a1.433,1.433,0,0,0-1.668.409L9.267,10.6A9.721,9.721,0,0,1,5.387,6.726L6.637,5.7a1.435,1.435,0,0,0,.409-1.669L5.687.863A1.426,1.426,0,0,0,4.052.031L1.109.71A1.425,1.425,0,0,0,0,2.1a13.887,13.887,0,0,0,13.892,13.89,1.424,1.424,0,0,0,1.393-1.11l.678-2.944A1.43,1.43,0,0,0,15.132,10.307Zm-1.3,4.19A12.39,12.39,0,0,1,1.5,2.16l2.834-.653L5.649,4.576,3.521,6.317a11.32,11.32,0,0,0,6.156,6.156l1.74-2.128,3.068,1.316Z" transform="translate(0 0.006)"/></svg>