<?xml version="1.0" encoding="UTF-8"?>
<svg width="32px" height="32px" viewBox="0 0 32 32" version="1.1" xmlns="http://www.w3.org/2000/svg" xmlns:xlink="http://www.w3.org/1999/xlink">
    <title>Upload</title>
    <g id="Page-1" stroke="none" stroke-width="1" fill="none" fill-rule="evenodd">
        <g id="Orders-Details" transform="translate(-361.000000, -680.000000)">
            <g id="Order-Details" transform="translate(25.000000, 680.000000)">
                <g id="Upload" transform="translate(336.000000, 0.000000)">
                    <rect id="Rectangle" fill="#545859" x="0" y="0" width="32" height="32"></rect>
                    <g id="arrow-to-top-regular" transform="translate(10.000000, 8.000000)" fill="#FFFFFF" fill-rule="nonzero">
                        <path d="M1.20182292,8.39244792 L6.21223958,3.36848958 C6.37135417,3.209375 6.62864583,3.209375 6.78776042,3.36848958 L11.7981771,8.39244792 C11.9572917,8.5515625 11.9572917,8.80885417 11.7981771,8.96796875 L11.1346354,9.63151042 C10.9721354,9.79401042 10.7114583,9.790625 10.5557292,9.62473958 L7.38020833,6.3375 L7.38020833,14.7604167 C7.38020833,14.9838542 7.19739583,15.1666667 6.97395833,15.1666667 L6.02604167,15.1666667 C5.80260417,15.1666667 5.61979167,14.9838542 5.61979167,14.7604167 L5.61979167,6.3375 L2.44765625,9.62473958 C2.28854167,9.78723958 2.02786458,9.790625 1.86875,9.63151042 L1.20520833,8.96796875 C1.04270833,8.80885417 1.04270833,8.5515625 1.20182292,8.39244792 Z M0.40625,1.76041667 L12.59375,1.76041667 C12.8171875,1.76041667 13,1.57760417 13,1.35416667 L13,0.40625 C13,0.1828125 12.8171875,0 12.59375,0 L0.40625,0 C0.1828125,0 0,0.1828125 0,0.40625 L0,1.35416667 C0,1.57760417 0.1828125,1.76041667 0.40625,1.76041667 Z" id="Shape"></path>
                    </g>
                </g>
            </g>
        </g>
    </g>
</svg>