<svg xmlns="http://www.w3.org/2000/svg" width="21" height="21" viewBox="0 0 21 21"><defs><style>.a{fill:#fff;}</style></defs><path class="a" d="M18.5,8A10.5,10.5,0,1,0,29,18.5,10.5,10.5,0,0,0,18.5,8Zm0,18.968A8.468,8.468,0,1,1,26.968,18.5,8.463,8.463,0,0,1,18.5,26.968Zm4.541-10.8c0,2.839-3.066,2.883-3.066,3.932v.268a.508.508,0,0,1-.508.508H17.534a.508.508,0,0,1-.508-.508V20c0-1.513,1.147-2.118,2.014-2.6.744-.417,1.2-.7,1.2-1.252,0-.73-.931-1.215-1.684-1.215-.982,0-1.435.465-2.072,1.269a.508.508,0,0,1-.706.09L14.6,15.39a.509.509,0,0,1-.112-.693A4.759,4.759,0,0,1,18.745,12.4C20.823,12.4,23.041,14.025,23.041,16.163Zm-2.762,7.079A1.778,1.778,0,1,1,18.5,21.464,1.78,1.78,0,0,1,20.278,23.242Z" transform="translate(-8 -8)"/></svg>