<svg xmlns="http://www.w3.org/2000/svg" width="23" height="20.444" viewBox="0 0 23 20.444"><defs><style>.a{fill:#fff;}</style></defs><path class="a" d="M22.041,2.556H5.761L5.413.774A.958.958,0,0,0,4.472,0H.479A.479.479,0,0,0,0,.479v.958a.479.479,0,0,0,.479.479h3.2l2.779,14.2a2.555,2.555,0,1,0,4.056.491h5.8a2.556,2.556,0,1,0,3.983-.565l.041-.19a.958.958,0,0,0-.936-1.162H8.136l-.375-1.917H20.236a.958.958,0,0,0,.936-.755l1.806-8.306A.958.958,0,0,0,22.041,2.556ZM8.306,18.847a.958.958,0,1,1,.958-.958A.959.959,0,0,1,8.306,18.847Zm10.222,0a.958.958,0,1,1,.958-.958A.959.959,0,0,1,18.528,18.847Zm.936-7.986H7.386L6.136,4.472H20.852Z"/></svg>