<svg xmlns="http://www.w3.org/2000/svg" width="18" height="20.571" viewBox="0 0 18 20.571"><defs><style>.a{fill:#fff;}</style></defs><path class="a" d="M12.6,12.214c-1.153,0-1.708.643-3.6.643s-2.443-.643-3.6-.643a5.4,5.4,0,0,0-5.4,5.4v1.029a1.929,1.929,0,0,0,1.929,1.929H16.071A1.929,1.929,0,0,0,18,18.643V17.614A5.4,5.4,0,0,0,12.6,12.214Zm3.471,6.429H1.929V17.614A3.477,3.477,0,0,1,5.4,14.143a15.731,15.731,0,0,0,3.6.643,15.58,15.58,0,0,0,3.6-.643,3.477,3.477,0,0,1,3.471,3.471ZM9,11.571A5.786,5.786,0,1,0,3.214,5.786,5.787,5.787,0,0,0,9,11.571ZM9,1.929A3.857,3.857,0,1,1,5.143,5.786,3.863,3.863,0,0,1,9,1.929Z"/></svg>