<svg xmlns="http://www.w3.org/2000/svg" width="24" height="21.332" viewBox="0 0 24 21.332"><defs><style>.a{fill:#545859;}</style></defs><path class="a" d="M23,2.666H6.012L5.65.808A1,1,0,0,0,4.666,0H.5A.5.5,0,0,0,0,.5v1A.5.5,0,0,0,.5,2H3.841l2.9,14.82a2.667,2.667,0,1,0,4.591,1.846,2.633,2.633,0,0,0-.358-1.333h6.05a2.667,2.667,0,1,0,4.154-.587l.042-.2a1,1,0,0,0-.979-1.212H8.491l-.392-2H21.115a1,1,0,0,0,.979-.787l1.883-8.666A1,1,0,0,0,23,2.666Zm-14.332,17a1,1,0,1,1,1-1A1,1,0,0,1,8.666,19.665Zm10.666,0a1,1,0,1,1,1-1A1,1,0,0,1,19.332,19.665Zm.975-8.333H7.708L6.4,4.666H21.757l-1.45,6.666Z"/></svg>