<?xml version="1.0" encoding="UTF-8"?>
<svg width="62px" height="61px" viewBox="0 0 62 61" version="1.1" xmlns="http://www.w3.org/2000/svg" xmlns:xlink="http://www.w3.org/1999/xlink">
    <title>Disputed</title>
    <g id="Page-1" stroke="none" stroke-width="1" fill="none" fill-rule="evenodd">
        <g id="Icons" transform="translate(-435.000000, -1017.000000)">
            <g id="Group-3" transform="translate(435.000000, 1017.000000)">
                <ellipse id="Oval-Copy-10" stroke="#F47920" stroke-width="5" cx="31" cy="30.5" rx="28.5" ry="28"></ellipse>
                <path d="M16,19.2812413 L16,33.3437039 C16,34.120362 16.6295882,34.7499501 17.4062463,34.7499501 L22.0937338,34.7499501 C22.8703919,34.7499501 23.49998,34.120362 23.49998,33.3437039 L23.49998,19.2812413 C23.49998,18.5045832 22.8703919,17.874995 22.0937338,17.874995 L17.4062463,17.874995 C16.6295882,17.874995 16,18.5045832 16,19.2812413 Z M18.3437438,30.9999601 C18.3437438,30.223302 18.9733319,29.5937138 19.74999,29.5937138 C20.5266481,29.5937138 21.1562363,30.223302 21.1562363,30.9999601 C21.1562363,31.7766182 20.5266481,32.4062064 19.74999,32.4062064 C18.9733319,32.4062064 18.3437438,31.7766182 18.3437438,30.9999601 Z M34.2812014,45.9999202 C33.0986069,45.9999202 32.5535692,43.6976021 32.2930621,42.6135034 C31.9880239,41.3440146 31.6726146,40.0312837 30.805195,39.1622235 C28.9027196,37.2565255 27.9046363,34.8282312 25.5835097,32.5346435 C25.4500936,32.402762 25.3750337,32.2229643 25.3750337,32.0353675 L25.3750337,19.5098149 C25.3750337,19.1265542 25.6822399,18.8138402 26.065442,18.8068089 C26.9930372,18.7898168 28.2154753,18.2748377 29.1504533,17.8588818 C31.0110343,17.0311301 33.3266531,16.0009961 36.1559034,16 L36.3225436,16 C38.8290018,16 41.7930173,16.0241992 42.9889712,17.7423977 C43.4806886,18.4488607 43.6010399,19.3264169 43.3492046,20.357547 C44.3049833,21.3567436 44.8177358,23.2206058 44.3090848,24.7378283 C45.3370509,26.1107934 45.430742,28.0268039 44.854474,29.3942026 L44.8609193,29.4006479 C45.5577729,30.1007828 46.0048421,31.2322251 45.9999604,32.283277 C45.9907796,34.0617098 44.4672876,35.6874476 42.5104959,35.6874476 L36.5501211,35.6874476 C36.9782645,37.3479901 38.4999401,38.7420489 38.4999401,41.2273548 C38.4999401,45.5311714 35.6874476,45.9999202 34.2812014,45.9999202 Z" id="Shape" fill="#F47920" fill-rule="nonzero"></path>
            </g>
        </g>
    </g>
</svg>