<?xml version="1.0" encoding="UTF-8"?>
<svg width="63px" height="61px" viewBox="0 0 63 61" version="1.1" xmlns="http://www.w3.org/2000/svg" xmlns:xlink="http://www.w3.org/1999/xlink">
    <title>Outstanding</title>
    <g id="Page-1" stroke="none" stroke-width="1" fill="none" fill-rule="evenodd">
        <g id="Icons" transform="translate(-180.000000, -1257.000000)">
            <g id="Outstanding" transform="translate(180.666667, 1257.000000)">
                <ellipse id="Oval-Copy-9" stroke="#545859" stroke-width="5" cx="31" cy="30.5" rx="28.5" ry="28"></ellipse>
                <g id="exclamation-triangle-solid-(1)" transform="translate(15.000000, 14.000000)" fill="#545859" fill-rule="nonzero">
                    <path d="M31.6398402,24.0632108 C32.6652845,25.8128827 31.3781182,28 29.3300075,28 L2.66968183,28 C0.617626863,28 -0.663594996,25.8094922 0.359849158,24.0632108 L13.6901787,1.31167994 C14.7161229,-0.438812225 17.2857332,-0.435640351 18.3098441,1.31167994 L31.6398402,24.0632108 Z M16.0000114,19.359375 C14.5886229,19.359375 13.4444565,20.4856641 13.4444565,21.8749999 C13.4444565,23.264336 14.5886229,24.3906251 16.0000114,24.3906251 C17.4113999,24.3906251 18.5555662,23.264336 18.5555662,21.8749999 C18.5555662,20.4856641 17.4113999,19.359375 16.0000114,19.359375 Z M13.5737343,10.3170158 L13.9858453,17.7545157 C14.0051231,18.1025469 14.2974563,18.3750001 14.6515118,18.3750001 L17.348511,18.3750001 C17.7025665,18.3750001 17.9948997,18.1025469 18.0141775,17.7545157 L18.4262885,10.3170158 C18.4471218,9.94109389 18.1430663,9.62500015 17.760622,9.62500015 L14.2393452,9.62500015 C13.8569009,9.62500015 13.552901,9.94109389 13.5737343,10.3170158 L13.5737343,10.3170158 Z" id="Shape"></path>
                </g>
            </g>
        </g>
    </g>
</svg>