<?xml version="1.0" encoding="UTF-8"?>
<svg width="62px" height="61px" viewBox="0 0 62 61" version="1.1" xmlns="http://www.w3.org/2000/svg" xmlns:xlink="http://www.w3.org/1999/xlink">
    <title>Paid</title>
    <g id="Page-1" stroke="none" stroke-width="1" fill="none" fill-rule="evenodd">
        <g id="Icons" transform="translate(-576.000000, -1017.000000)">
            <g id="Group-2" transform="translate(576.000000, 1017.000000)">
                <ellipse id="Oval-Copy-7" stroke="#6CB33F" stroke-width="5" cx="31" cy="30.5" rx="28.5" ry="28"></ellipse>
                <g id="thumbs-up-solid" transform="translate(16.000000, 15.000000)" fill="#6CB33F" fill-rule="nonzero">
                    <path d="M6.09374569,13.1249907 L1.40624901,13.1249907 C0.629589399,13.1249907 0,13.7545801 0,14.5312397 L0,28.5937298 C0,29.3703894 0.629589399,29.9999788 1.40624901,29.9999788 L6.09374569,29.9999788 C6.8704053,29.9999788 7.5,29.3703894 7.5,28.5937298 L7.5,14.5312397 C7.5,13.7545801 6.8704053,13.1249907 6.09374569,13.1249907 Z M3.74999735,27.6562304 C2.97333774,27.6562304 2.34374834,27.026641 2.34374834,26.2499814 C2.34374834,25.4733218 2.97333774,24.8437324 3.74999735,24.8437324 C4.52665696,24.8437324 5.15624635,25.4733218 5.15624635,26.2499814 C5.15624635,27.026641 4.52665696,27.6562304 3.74999735,27.6562304 Z M22.4999841,4.77257475 C22.4999841,7.25788549 20.9783055,8.65194701 20.5501612,10.3124927 L26.5104891,10.3124927 C28.4673432,10.3124927 29.9907796,11.9382337 29.9999604,13.71667 C30.0048421,14.7677239 29.5577721,15.899227 28.8609171,16.5993047 L28.8544718,16.60575 C29.4307995,17.9731514 29.3371082,19.8891656 28.3090815,21.2621334 C28.8177335,22.7794175 28.3050386,24.6432248 27.3491994,25.6424233 C27.6010352,26.6735554 27.4806837,27.5511133 26.9889653,28.2575777 C25.7930677,29.9757796 22.8290464,29.9999788 20.3225833,29.9999788 L20.1558842,29.9999788 C17.3265698,29.9989241 15.011005,28.9687881 13.1504204,28.1410348 C12.2154406,27.7250781 10.9929414,27.2101565 10.065403,27.1931058 C9.68220018,27.1860745 9.37499337,26.8733599 9.37499337,26.4900985 L9.37499337,13.9645214 C9.37499337,13.7770215 9.45011051,13.5970802 9.58346979,13.4652444 C11.904601,11.1716523 12.9026862,8.74335319 14.8051653,6.83765141 C15.6725866,5.96858953 15.9880551,4.65585608 16.2930354,3.38636479 C16.5536016,2.30232259 17.0986403,0 18.2812371,0 C19.6874861,0 22.4999841,0.468749669 22.4999841,4.77257475 Z" id="Shape"></path>
                </g>
            </g>
        </g>
    </g>
</svg>