<?xml version="1.0" encoding="UTF-8"?>
<svg width="23px" height="23px" viewBox="0 0 23 23" version="1.1" xmlns="http://www.w3.org/2000/svg" xmlns:xlink="http://www.w3.org/1999/xlink">
    <title>comment-alt-regular</title>
    <g id="Page-1" stroke="none" stroke-width="1" fill="none" fill-rule="evenodd">
        <g id="Customer-Service-Dropdown" transform="translate(-1046.000000, -157.000000)" fill="#545859" fill-rule="nonzero">
            <g id="comment-alt-regular" transform="translate(1046.000000, 157.000000)">
                <path d="M20.125,0 L2.875,0 C1.28925781,0 0,1.28925781 0,2.875 L0,15.8125 C0,17.3982422 1.28925781,18.6875 2.875,18.6875 L7.1875,18.6875 L7.1875,22.4609375 C7.1875,22.7798828 7.44804687,23 7.7265625,23 C7.834375,23 7.94667969,22.9685547 8.04550781,22.8921875 L13.65625,18.6875 L20.125,18.6875 C21.7107422,18.6875 23,17.3982422 23,15.8125 L23,2.875 C23,1.28925781 21.7107422,0 20.125,0 Z M20.84375,15.8125 C20.84375,16.2078125 20.5203125,16.53125 20.125,16.53125 L12.9375,16.53125 L12.3625,16.9625 L9.34375,19.2265625 L9.34375,16.53125 L2.875,16.53125 C2.4796875,16.53125 2.15625,16.2078125 2.15625,15.8125 L2.15625,2.875 C2.15625,2.4796875 2.4796875,2.15625 2.875,2.15625 L20.125,2.15625 C20.5203125,2.15625 20.84375,2.4796875 20.84375,2.875 L20.84375,15.8125 Z" id="Shape"></path>
            </g>
        </g>
    </g>
</svg>