<?xml version="1.0" encoding="UTF-8"?>
<svg width="23px" height="18px" viewBox="0 0 23 18" version="1.1" xmlns="http://www.w3.org/2000/svg" xmlns:xlink="http://www.w3.org/1999/xlink">
    <title>envelope-regular</title>
    <g id="Page-1" stroke="none" stroke-width="1" fill="none" fill-rule="evenodd">
        <g id="Customer-Service-Dropdown" transform="translate(-1046.000000, -129.000000)" fill="#545859" fill-rule="nonzero">
            <g id="envelope-regular" transform="translate(1046.000000, 129.000000)">
                <path d="M20.84375,0 L2.15625,0 C0.965371094,0 0,0.965371094 0,2.15625 L0,15.09375 C0,16.2846289 0.965371094,17.25 2.15625,17.25 L20.84375,17.25 C22.0346289,17.25 23,16.2846289 23,15.09375 L23,2.15625 C23,0.965371094 22.0346289,0 20.84375,0 Z M20.84375,2.15625 L20.84375,3.98928711 C19.8365117,4.80951562 18.2307344,6.0849375 14.7978496,8.77301758 C14.0413203,9.36809766 12.5427266,10.7977363 11.5,10.7810703 C10.4574531,10.797916 8.95836523,9.36787305 8.20215039,8.77301758 C4.76980469,6.0853418 3.16362305,4.80965039 2.15625,3.98928711 L2.15625,2.15625 L20.84375,2.15625 Z M2.15625,15.09375 L2.15625,6.75616016 C3.18558984,7.5760293 4.64532617,8.72652344 6.87026172,10.4687734 C7.85211914,11.2416543 9.57159375,12.947832 11.5,12.9374551 C13.4189277,12.947832 15.1166152,11.2664063 16.129334,10.4691328 C18.3542246,8.72692773 19.8143652,7.57611914 20.84375,6.75616016 L20.84375,15.09375 L2.15625,15.09375 Z" id="Shape"></path>
            </g>
        </g>
    </g>
</svg>