<?xml version="1.0" encoding="UTF-8"?>
<svg width="32px" height="32px" viewBox="0 0 32 32" version="1.1" xmlns="http://www.w3.org/2000/svg" xmlns:xlink="http://www.w3.org/1999/xlink">
    <title>In</title>
    <g id="Page-1" stroke="none" stroke-width="1" fill="none" fill-rule="evenodd">
        <g id="Customer-Service-Dropdown" transform="translate(-1077.000000, -305.000000)">
            <g id="In" transform="translate(1077.000000, 305.000000)">
                <g id="FB" fill="#545859">
                    <circle id="Oval" cx="16" cy="16" r="16"></circle>
                </g>
                <path d="M11.8,24.2 L7.8,24.2 L7.8,11.4 L11.8,11.4 L11.8,24.2 Z M9.8,9.6 C8.5,9.6 7.5,8.5 7.5,7.3 C7.5,6 8.5,5 9.8,5 C11.1,5 12.1,6 12.1,7.3 C12.1,8.5 11.1,9.6 9.8,9.6 Z M26.7,24.2 L22.7,24.2 L22.7,17.9 C22.7,16.4 22.7,14.5 20.6,14.5 C18.5,14.5 18.2,16.1 18.2,17.8 L18.2,24.2 L14.2,24.2 L14.2,11.4 L18,11.4 L18,13.2 L18.1,13.2 C18.6,12.2 19.9,11.1 21.9,11.1 C25.9,11.1 26.7,13.8 26.7,17.2 L26.7,24.2 L26.7,24.2 Z" id="Shape" fill="#FFFFFF" fill-rule="nonzero"></path>
            </g>
        </g>
    </g>
</svg>