<?xml version="1.0" encoding="UTF-8"?>
<svg width="22px" height="22px" viewBox="0 0 22 22" version="1.1" xmlns="http://www.w3.org/2000/svg" xmlns:xlink="http://www.w3.org/1999/xlink">
    <title>Shape</title>
    <g id="Page-1" stroke="none" stroke-width="1" fill="none" fill-rule="evenodd">
        <g id="Customer-Service-Dropdown" transform="translate(-1046.000000, -97.000000)" fill="#545859" fill-rule="nonzero">
            <path d="M1066.80726,111.179776 L1062.44214,109.308509 C1061.63727,108.966226 1060.70311,109.195438 1060.14808,109.871393 L1058.74303,111.590123 C1056.48909,110.361662 1054.63655,108.510162 1053.40683,106.256905 L1055.12555,104.851843 C1055.80146,104.296224 1056.03061,103.361764 1055.68843,102.55648 L1053.82018,98.1943443 C1053.44795,97.3180347 1052.49998,96.835799 1051.57253,97.0509595 L1047.52537,97.9838 C1046.63085,98.1868055 1045.99698,98.9833485 1046,99.9006131 C1046,110.481972 1054.57986,119.004292 1065.10186,119 C1066.01898,119.002737 1066.81518,118.368664 1067.0178,117.474193 L1067.95021,113.425726 C1068.16229,112.49921 1067.68111,111.553663 1066.80726,111.179776 Z M1064.97826,116.870972 C1055.68911,116.828291 1048.17172,109.312647 1048.12903,100.021059 L1052.00086,99.1290327 L1053.79781,103.321131 L1050.89084,105.698872 C1052.87137,109.924261 1055.08287,112.127866 1059.30137,114.10697 L1061.67894,111.199987 L1065.87097,112.997272 L1064.97826,116.870972 Z" id="Shape"></path>
        </g>
    </g>
</svg>