<?xml version="1.0" encoding="UTF-8"?>
<svg width="32px" height="32px" viewBox="0 0 32 32" version="1.1" xmlns="http://www.w3.org/2000/svg" xmlns:xlink="http://www.w3.org/1999/xlink">
    <title>Tw</title>
    <g id="Page-1" stroke="none" stroke-width="1" fill="none" fill-rule="evenodd">
        <g id="Customer-Service-Dropdown" transform="translate(-1179.000000, -304.000000)">
            <g id="Tw" transform="translate(1179.000000, 304.000000)">
                <circle id="Oval-Copy-2" fill="#545859" cx="16" cy="16" r="16"></circle>
                <g id="twitter-brands" transform="translate(6.000000, 8.000000)" fill="#FFFFFF" fill-rule="nonzero">
                    <path d="M18.8414213,4.2643942 C18.8547514,4.45153804 18.8547514,4.63872303 18.8547514,4.82586687 C18.8547514,10.5340009 14.5241817,17.1111111 6.60916058,17.1111111 C4.17069012,17.1111111 1.90547033,16.4025733 0,15.1727651 C0.346460338,15.2128438 0.679549529,15.2262171 1.03934,15.2262171 C3.05136934,15.2262171 4.90356017,14.5444671 6.3826304,13.381443 C4.4904902,13.3413231 2.90481994,12.0981004 2.35848968,10.3869769 C2.62501025,10.4270557 2.89148981,10.4538023 3.17134051,10.4538023 C3.55775023,10.4538023 3.94420095,10.4003091 4.30395041,10.3067783 C2.33187044,9.9057029 0.85275919,8.167874 0.85275919,6.06908957 L0.85275919,6.01563754 C1.42570869,6.33647319 2.09201013,6.53699032 2.7981789,6.56369576 C1.63890875,5.78833266 0.879419451,4.46491133 0.879419451,2.96767831 C0.879419451,2.16560976 1.09257849,1.43036655 1.46569908,0.78869525 C3.58436947,3.40883247 6.76904011,5.11991477 10.3400795,5.30709976 C10.2734698,4.98626412 10.2334794,4.65209632 10.2334794,4.31788738 C10.2334794,1.93834603 12.1522799,0 14.5374298,0 C15.7766398,0 16.8959195,0.521352784 17.6821101,1.36354122 C18.6547994,1.17639738 19.5875394,0.815441841 20.4137204,0.320835648 C20.0938793,1.32346248 19.4143297,2.16565091 18.5215802,2.70033584 C19.3877105,2.60680507 20.2271806,2.3661269 21,2.0319591 C20.4138024,2.88747968 19.6808913,3.64942834 18.8414213,4.2643942 Z" id="Path"></path>
                </g>
            </g>
        </g>
    </g>
</svg>