<?xml version="1.0" encoding="utf-8"?>
<!-- Generator: Adobe Illustrator 16.0.0, SVG Export Plug-In . SVG Version: 6.00 Build 0)  -->
<!DOCTYPE svg PUBLIC "-//W3C//DTD SVG 1.1//EN" "http://www.w3.org/Graphics/SVG/1.1/DTD/svg11.dtd">
<svg version="1.1" id="Layer_1" xmlns="http://www.w3.org/2000/svg" xmlns:xlink="http://www.w3.org/1999/xlink" x="0px" y="0px"
	 width="110px" height="110px" viewBox="0 0 110 110" enable-background="new 0 0 110 110" xml:space="preserve">
<g>
	<path fill="#FFFFFF" d="M55,7.379c-26.257,0-47.619,21.364-47.619,47.62c0,26.259,21.362,47.62,47.619,47.62
		c26.259,0,47.62-21.361,47.62-47.62C102.62,28.743,81.259,7.379,55,7.379z"/>
	<g>
		<path fill="#515151" d="M55,110C24.674,110,0,85.326,0,54.999C0,24.672,24.674,0,55,0c30.327,0,55,24.672,55,54.999
			C110,85.326,85.327,110,55,110z M55,7.387c-26.253,0-47.612,21.36-47.612,47.612c0,26.255,21.358,47.614,47.612,47.614
			s47.612-21.359,47.612-47.614C102.612,28.747,81.254,7.387,55,7.387z"/>
	</g>
	<g>
		<g>
			<path fill="#515151" d="M92.274,48.183l-3.012-9.374L81.56,39.6c-1.049-1.803-2.24-3.459-3.584-4.957l3.164-7.059l-7.953-5.818
				l-5.768,5.162c-1.847-0.83-3.804-1.477-5.793-1.904l-1.59-7.592l-9.855-0.02l-1.645,7.562c-0.98,0.211-1.96,0.48-2.935,0.795
				c-1.005,0.32-1.96,0.67-2.861,1.076l-5.753-5.182l-7.976,5.77l3.117,7.082c-1.363,1.523-2.562,3.16-3.602,4.912l-7.705-0.811
				l-3.064,9.346l6.7,3.896c-0.22,2.002-0.218,4.059-0.034,6.12l-6.697,3.854l3.003,9.359l7.71-0.771
				c1.028,1.789,2.217,3.441,3.561,4.943l-3.156,7.078l7.946,5.801l5.792-5.152c1.847,0.826,3.797,1.453,5.79,1.904l1.609,7.562
				l9.833,0.029l1.646-7.561c0.983-0.209,1.974-0.471,2.956-0.783c0.971-0.311,1.922-0.678,2.861-1.086l5.731,5.174l7.981-5.75
				l-3.115-7.078c1.359-1.529,2.553-3.182,3.579-4.93l7.703,0.812l3.082-9.352l-6.681-3.904c0.2-1.998,0.209-4.034,0.019-6.091
				L92.274,48.183z M61.36,74.83c-10.949,3.518-22.678-2.514-26.192-13.463C31.652,50.415,37.68,38.682,48.631,35.17
				c10.952-3.514,22.679,2.516,26.194,13.465C78.341,59.59,72.312,71.316,61.36,74.83z"/>
			<path fill="#515151" d="M49.957,39.307c-8.664,2.782-13.438,12.063-10.656,20.734c2.783,8.668,12.066,13.439,20.735,10.658
				c8.666-2.785,13.438-12.068,10.656-20.739C67.909,41.292,58.625,36.524,49.957,39.307z M59.263,68.293
				c-7.342,2.355-15.2-1.684-17.556-9.023c-2.355-7.343,1.683-15.202,9.025-17.556c7.339-2.358,15.197,1.682,17.554,9.021
				C70.642,58.078,66.603,65.938,59.263,68.293z"/>
		</g>
	</g>
</g>
</svg>
