<?xml version="1.0" encoding="utf-8"?>
<!-- Generator: Adobe Illustrator 16.0.0, SVG Export Plug-In . SVG Version: 6.00 Build 0)  -->
<!DOCTYPE svg PUBLIC "-//W3C//DTD SVG 1.1//EN" "http://www.w3.org/Graphics/SVG/1.1/DTD/svg11.dtd">
<svg version="1.1" id="Layer_1" xmlns="http://www.w3.org/2000/svg" xmlns:xlink="http://www.w3.org/1999/xlink" x="0px" y="0px"
	 width="110px" height="110px" viewBox="0 0 110 110" enable-background="new 0 0 110 110" xml:space="preserve">
<g>
	<path fill="#FFFFFF" d="M55,7.381c-26.258,0-47.62,21.362-47.62,47.62c0,26.258,21.362,47.619,47.62,47.619
		c26.258,0,47.62-21.361,47.62-47.619C102.619,28.743,81.258,7.381,55,7.381z"/>
</g>
<g>
	<g>
		<path fill="#515151" d="M55,110C24.673,110,0,85.325,0,55C0,24.674,24.673,0,55,0s55,24.674,55,55C110,85.325,85.326,110,55,110z
			 M55,7.388C28.746,7.388,7.388,28.746,7.388,55c0,26.254,21.358,47.612,47.612,47.612c26.254,0,47.612-21.358,47.612-47.612
			C102.611,28.746,81.254,7.388,55,7.388z"/>
	</g>
</g>
<g>
	<g>
		<path fill="#515151" d="M87.182,60.39c-0.002-1.114-0.322-2.88-0.713-3.922L75.836,28.113c-0.391-1.042-1.622-1.897-2.735-1.897
			h-6.725c-1.114,0-2.025,0.912-2.025,2.026v3.267c0,1.115,0.911,2.026,2.025,2.026l3.882,0.001c1.114,0.001,1.156,0.868,1.5,1.929
			l6.772,20.974c0.342,1.06-0.289,1.927-1.403,1.927H65.99c-1.114,0-2.469,0.797-3.011,1.77l-2.11,3.791
			c-0.542,0.973-1.897,1.77-3.012,1.77h-5.967c-1.113,0-2.441-0.812-2.947-1.805l-1.898-3.713c-0.506-0.992-1.833-1.805-2.947-1.805
			h-11.15c-1.114,0-1.745-0.867-1.403-1.927l6.78-20.992c0.342-1.062,0.385-1.927,1.499-1.927l3.882,0.001
			c1.113,0,2.025-0.911,2.025-2.025v-3.261c0-1.114-0.912-2.026-2.025-2.026h-6.734c-1.114,0-2.346,0.854-2.738,1.897L23.582,56.479
			c-0.392,1.043-0.712,2.808-0.712,3.923v17.203c0,1.114,0.911,2.025,2.025,2.025l60.279-0.016c1.113,0,2.024-0.912,2.023-2.026
			L87.182,60.39z"/>
	</g>
	<g>
		<path fill="#515151" d="M50.068,36.985c0,1.115,0.525,0.589-0.588,0.589h-8.387c-1.114,0-1.43,0.689-0.701,1.532l13.17,15.237
			c0.728,0.844,1.921,0.843,2.649,0l13.165-15.237c0.728-0.843,0.413-1.532-0.701-1.532h-8.39c-1.113,0-0.59,0.525-0.59-0.589
			V22.863c0-1.113-0.91-2.025-2.025-2.025h-5.577c-1.114,0-2.025,0.912-2.025,2.025V36.985z"/>
	</g>
</g>
</svg>
