<?xml version="1.0" encoding="utf-8"?>
<!-- Generator: Adobe Illustrator 16.0.0, SVG Export Plug-In . SVG Version: 6.00 Build 0)  -->
<!DOCTYPE svg PUBLIC "-//W3C//DTD SVG 1.1//EN" "http://www.w3.org/Graphics/SVG/1.1/DTD/svg11.dtd">
<svg version="1.1" id="Layer_1" xmlns="http://www.w3.org/2000/svg" xmlns:xlink="http://www.w3.org/1999/xlink" x="0px" y="0px"
	 width="110px" height="110px" viewBox="0 0 110 110" enable-background="new 0 0 110 110" xml:space="preserve">
<g>
	<path fill="#FFFFFF" d="M55,7.381C28.742,7.381,7.38,28.743,7.38,55c0,26.258,21.362,47.621,47.62,47.621
		c26.259,0,47.62-21.363,47.62-47.621C102.62,28.743,81.259,7.381,55,7.381z"/>
	<g>
		<g>
			<path fill="#515151" d="M55,110C24.673,110,0,85.326,0,55C0,24.675,24.673,0,55,0c30.327,0,55,24.675,55,55
				C110,85.326,85.327,110,55,110z M55,7.387c-26.254,0-47.612,21.358-47.612,47.612c0,26.255,21.358,47.614,47.612,47.614
				s47.612-21.359,47.612-47.614C102.613,28.747,81.254,7.387,55,7.387z"/>
		</g>
		<g>
			<path fill="#515151" d="M58.714,16.692c0,2.028-1.641,3.666-3.666,3.666c-2.023,0-3.663-1.638-3.663-3.666
				c0-2.024,1.639-3.664,3.663-3.664C57.073,13.028,58.714,14.668,58.714,16.692z"/>
			<path fill="#515151" d="M96.962,55.028c0,2.026-1.639,3.665-3.665,3.665c-2.024,0-3.663-1.639-3.663-3.665
				s1.639-3.666,3.663-3.666C95.323,51.362,96.962,53.002,96.962,55.028z"/>
			<circle fill="#515151" cx="55.051" cy="93.31" r="3.665"/>
			<path fill="#515151" d="M20.369,55.028c0,2.026-1.639,3.665-3.665,3.665c-2.023,0-3.665-1.639-3.665-3.665
				s1.641-3.666,3.665-3.666C18.729,51.362,20.369,53.002,20.369,55.028z"/>
		</g>
		<path fill="#515151" d="M73.341,25.185c-0.353-0.223-0.822-0.125-1.05,0.229L52.393,56.289c-0.193,0.299-0.151,0.693,0.1,0.947
			l13.421,13.484c0.147,0.15,0.345,0.225,0.538,0.225s0.389-0.074,0.535-0.223c0.298-0.295,0.299-0.775,0.003-1.072L54,56.596
			l19.567-30.36C73.794,25.883,73.692,25.413,73.341,25.185z"/>
	</g>
</g>
</svg>
