<?xml version="1.0" encoding="utf-8"?>
<!-- Generator: Adobe Illustrator 25.4.1, SVG Export Plug-In . SVG Version: 6.00 Build 0)  -->
<svg version="1.1" id="Layer_1" xmlns="http://www.w3.org/2000/svg" xmlns:xlink="http://www.w3.org/1999/xlink" x="0px" y="0px"
	 viewBox="0 0 110 110" style="enable-background:new 0 0 110 110;" xml:space="preserve">
<style type="text/css">
	.st0{fill:#FFFFFF;}
	.st1{fill:#10BEF0;}
</style>
<g>
	<path class="st0" d="M55,7.4C28.7,7.4,7.4,28.7,7.4,55s21.4,47.6,47.6,47.6c26.3,0,47.6-21.4,47.6-47.6C102.6,28.7,81.3,7.4,55,7.4
		z"/>
	<g>
		<path class="st1" d="M55,110C24.7,110,0,85.3,0,55S24.7,0,55,0s55,24.7,55,55S85.3,110,55,110z M55,7.4C28.7,7.4,7.4,28.7,7.4,55
			s21.4,47.6,47.6,47.6s47.6-21.4,47.6-47.6C102.6,28.7,81.3,7.4,55,7.4z"/>
	</g>
	<g>
		<g>
			<path class="st1" d="M92.3,48.2l-3-9.4l-7.7,0.8c-1.1-1.8-2.2-3.5-3.6-5l3.2-7.1l-8-5.8l-5.8,5.2c-1.8-0.8-3.8-1.5-5.8-1.9
				L60,17.4h-9.9L48.5,25c-1,0.2-2,0.5-2.9,0.8c-1,0.3-2,0.7-2.9,1.1L37,21.7l-8,5.8l3.1,7.1c-1.4,1.5-2.6,3.2-3.6,4.9l-7.7-0.8
				l-3,9.3l6.7,3.9c-0.2,2-0.2,4.1,0,6.1l-6.7,3.9l3,9.4l7.7-0.8c1,1.8,2.2,3.4,3.6,4.9l-3.2,7.1l7.9,5.8l5.8-5.2
				c1.8,0.8,3.8,1.5,5.8,1.9l1.6,7.6h9.8l1.6-7.6c1-0.2,2-0.5,3-0.8s1.9-0.7,2.9-1.1l5.7,5.2l8-5.8l-3.1-7.1
				c1.4-1.5,2.6-3.2,3.6-4.9l7.7,0.8l3.1-9.4L85.6,58c0.2-2,0.2-4,0-6.1L92.3,48.2z M61.4,74.8c-10.9,3.5-22.7-2.5-26.2-13.5
				s2.5-22.7,13.5-26.2s22.7,2.5,26.2,13.5C78.3,59.6,72.3,71.3,61.4,74.8z"/>
			<path class="st1" d="M50,39.3C41.3,42.1,36.5,51.4,39.3,60c2.8,8.7,12.1,13.4,20.7,10.7c8.7-2.8,13.4-12.1,10.7-20.7
				C67.9,41.3,58.6,36.5,50,39.3z M59.3,68.3c-7.3,2.4-15.2-1.7-17.6-9s1.7-15.2,9-17.6c7.3-2.4,15.2,1.7,17.6,9
				C70.6,58.1,66.6,65.9,59.3,68.3z"/>
		</g>
	</g>
</g>
</svg>
