<?xml version="1.0" encoding="utf-8"?>
<!-- Generator: Adobe Illustrator 16.0.0, SVG Export Plug-In . SVG Version: 6.00 Build 0)  -->
<!DOCTYPE svg PUBLIC "-//W3C//DTD SVG 1.1//EN" "http://www.w3.org/Graphics/SVG/1.1/DTD/svg11.dtd">
<svg version="1.1" id="Layer_1" xmlns="http://www.w3.org/2000/svg" xmlns:xlink="http://www.w3.org/1999/xlink" x="0px" y="0px"
	 width="110px" height="110px" viewBox="0 0 110 110" enable-background="new 0 0 110 110" xml:space="preserve">
<g>
	<path fill="#FFFFFF" d="M55,7.381c-26.258,0-47.62,21.36-47.62,47.62C7.38,81.26,28.742,102.62,55,102.62s47.62-21.36,47.62-47.619
		C102.619,28.743,81.258,7.381,55,7.381z"/>
	<g>
		<g>
			<path fill="#FCB813" d="M55,110C24.673,110,0,85.324,0,55C0,24.674,24.673,0,55,0s55,24.674,55,55C110,85.324,85.326,110,55,110z
				 M55,7.388C28.746,7.388,7.388,28.746,7.388,55S28.746,102.611,55,102.611S102.612,81.254,102.612,55
				C102.611,28.746,81.254,7.388,55,7.388z"/>
		</g>
		<path fill="#FCB813" d="M57.793,64.15c0,2.25-1.316,3.646-3.412,3.646c-2.094,0-3.412-1.396-3.412-3.646v-8.763
			c0-3.49,0.078-4.11,5.43-5.196c6.127-1.241,7.137-5.506,7.137-8.375c0-5.274-3.803-8.532-8.998-8.532
			c-4.11,0-7.29,1.476-8.997,6.36c-0.698,2.017-1.628,2.56-3.024,2.56c-1.785,0-3.413-1.396-3.335-3.568
			c0.31-6.825,7.911-11.711,15.124-11.711c9.384,0,16.521,6.05,16.521,14.271c0,8.376-5.274,13.572-13.031,15.201L57.793,64.15
			L57.793,64.15z M54.381,75.163c2.172,0,3.955,1.784,3.955,3.957c0,2.17-1.783,3.954-3.955,3.954c-2.171,0-3.955-1.784-3.955-3.954
			C50.426,76.947,52.209,75.163,54.381,75.163z"/>
	</g>
</g>
</svg>
