<?xml version="1.0" encoding="utf-8"?>
<!-- Generator: Adobe Illustrator 16.0.0, SVG Export Plug-In . SVG Version: 6.00 Build 0)  -->
<!DOCTYPE svg PUBLIC "-//W3C//DTD SVG 1.1//EN" "http://www.w3.org/Graphics/SVG/1.1/DTD/svg11.dtd">
<svg version="1.1" id="Layer_1" xmlns="http://www.w3.org/2000/svg" xmlns:xlink="http://www.w3.org/1999/xlink" x="0px" y="0px"
	 width="110px" height="110px" viewBox="0 0 110 110" enable-background="new 0 0 110 110" xml:space="preserve">
<g>
	<path fill="#FFFFFF" d="M55,7.38C28.742,7.38,7.38,28.743,7.38,55c0,26.258,21.362,47.619,47.62,47.619S102.619,81.258,102.619,55
		C102.619,28.743,81.258,7.38,55,7.38z"/>
	<g>
		<path fill="#555759" d="M56.668,52.011V35.135c5.119,0.774,6.205,3.566,8.92,3.566c1.705,0,2.947-1.396,2.947-3.023
			c0-3.257-5.662-5.972-11.867-6.438v-3.645c0-0.931-0.621-1.629-1.628-1.629c-1.008,0-1.628,0.698-1.628,1.629v3.645
			c-9.307,0.854-14.736,8.066-14.736,14.193c0,9.658,7.621,12.157,14.656,14.553v16.875c-5.119-0.771-6.205-3.565-8.919-3.565
			c-1.706,0-2.947,1.396-2.947,3.022c0,3.26,5.661,5.975,11.866,6.439v3.645c0,0.933,0.621,1.629,1.629,1.629
			s1.627-0.696,1.627-1.629V80.76c9.309-0.855,14.736-8.066,14.736-14.193C71.324,56.906,63.703,54.409,56.668,52.011z
			 M45.966,42.968c0-4.267,3.102-7.29,7.445-7.833v15.744C49.146,49.25,45.966,47.233,45.966,42.968z M56.588,74.863V59.119
			c4.266,1.629,7.445,3.646,7.445,7.912C64.033,71.296,60.932,74.32,56.588,74.863z"/>
		<g>
			<path fill="#555759" d="M55,110C24.673,110,0,85.326,0,55C0,24.674,24.673,0,55,0c30.326,0,55,24.674,55,55
				C110,85.326,85.326,110,55,110z M55,7.388C28.746,7.388,7.388,28.747,7.388,55c0,26.254,21.358,47.611,47.612,47.611
				S102.611,81.254,102.611,55C102.611,28.747,81.254,7.388,55,7.388z"/>
		</g>
	</g>
</g>
</svg>
