<?xml version="1.0" encoding="utf-8"?>
<!-- Generator: Adobe Illustrator 25.4.1, SVG Export Plug-In . SVG Version: 6.00 Build 0)  -->
<svg version="1.1" id="Layer_1" xmlns="http://www.w3.org/2000/svg" xmlns:xlink="http://www.w3.org/1999/xlink" x="0px" y="0px"
	 viewBox="0 0 110 110" style="enable-background:new 0 0 110 110;" xml:space="preserve">
<style type="text/css">
	.st0{fill:#FFFFFF;}
	.st1{fill:#74BF44;}
</style>
<g>
	<path class="st0" d="M55,7.4C28.7,7.4,7.4,28.7,7.4,55c0,26.3,21.4,47.6,47.6,47.6s47.6-21.4,47.6-47.6C102.6,28.7,81.3,7.4,55,7.4
		z"/>
</g>
<g>
	<g>
		<path class="st1" d="M55,110C24.7,110,0,85.3,0,55S24.7,0,55,0c30.3,0,55,24.7,55,55S85.3,110,55,110z M55,7.4
			C28.7,7.4,7.4,28.7,7.4,55c0,26.3,21.4,47.6,47.6,47.6s47.6-21.4,47.6-47.6C102.6,28.7,81.3,7.4,55,7.4z"/>
	</g>
</g>
<g>
	<path class="st1" d="M34.5,78.9H26c-1.4,0-2.6-1.2-2.6-2.6V49.1c0-1.4,1.2-2.6,2.6-2.6h8.4c1.4,0,2.6,1.2,2.6,2.6v27.2
		C37.1,77.7,35.9,78.9,34.5,78.9z"/>
	<path class="st1" d="M85.4,47.1c0,1-0.2,1.9-0.6,2.7c0,0,0,0,0,0.1c1.3,1.2,2.1,3,2.1,5.1c0,2.9-1.6,5.3-3.7,6.1c0,0,0,0,0,0
		c0,0,0,0.1,0,0.1c0.6,1.1,1,2.3,1,3.7c0,3.2-1.9,5.8-4.4,6.4c0,0-0.1,0.1-0.1,0.1c0.2,2.3-0.5,4.7-2,6.3c-3.2,3.5-8.4,2.8-8.7,2.8
		l-1.2-0.2L42,76.8V49l0.2-0.1c7.1-4.3,10.7-8.1,12.6-12.2c2-4.4,2.3-7.8,2.3-7.8c0.4-7.9,2.9-9,4.2-9c0.2,0,0.3,0,0.4,0
		c4.7,0,6,4.5,6.1,4.8c1.4,4.8-0.6,13.7-1.1,16c0,0,12.4,0,12.5,0c3.3,0,5.9,2.6,6.2,5.8c0,0.1,0,0.2,0,0.2
		C85.4,46.8,85.4,47,85.4,47.1z"/>
	<circle class="st0" cx="30.3" cy="53.4" r="3"/>
</g>
</svg>
