<?xml version="1.0" encoding="utf-8"?>
<!-- Generator: Adobe Illustrator 16.0.0, SVG Export Plug-In . SVG Version: 6.00 Build 0)  -->
<!DOCTYPE svg PUBLIC "-//W3C//DTD SVG 1.1//EN" "http://www.w3.org/Graphics/SVG/1.1/DTD/svg11.dtd">
<svg version="1.1" id="Layer_1" xmlns="http://www.w3.org/2000/svg" xmlns:xlink="http://www.w3.org/1999/xlink" x="0px" y="0px"
	 width="110px" height="110px" viewBox="0 0 110 110" enable-background="new 0 0 110 110" xml:space="preserve">
<g>
	<path fill="#FFFFFF" d="M55,7.381C28.742,7.381,7.38,28.743,7.38,55c0,26.258,21.362,47.621,47.62,47.621
		c26.259,0,47.62-21.363,47.62-47.621C102.62,28.743,81.259,7.381,55,7.381z"/>
</g>
<g>
	<path fill="#F37920" d="M55.013,109.975c-30.319,0-54.987-24.668-54.987-54.988C0.026,24.668,24.694,0,55.013,0
		C85.332,0,110,24.667,110,54.986S85.332,109.975,55.013,109.975z M55.013,7.385c-26.247,0-47.601,21.354-47.601,47.601
		c0,26.249,21.354,47.601,47.601,47.601c26.248,0,47.603-21.353,47.603-47.601C102.614,28.739,81.261,7.385,55.013,7.385z"/>
</g>
<g>
	<path fill="#F37920" d="M34.516,31.057h-8.435c-1.424,0-2.589,1.166-2.589,2.589v27.188c0,1.424,1.165,2.59,2.589,2.59h8.435
		c1.424,0,2.589-1.166,2.589-2.59V33.646C37.105,32.223,35.94,31.057,34.516,31.057z"/>
	<path fill="#F37920" d="M85.509,62.824c0-0.982-0.229-1.908-0.608-2.744c0.014-0.018,0.023-0.035,0.037-0.055
		c1.26-1.186,2.082-3.014,2.082-5.089c0-2.887-1.571-5.303-3.729-6.14c-0.009-0.006-0.021-0.015-0.026-0.019
		c0.019-0.032,0.023-0.071,0.04-0.106c0.611-1.051,0.979-2.327,0.979-3.71c0-3.185-1.905-5.817-4.409-6.361
		c-0.042-0.022-0.102-0.057-0.134-0.071c0.155-2.322-0.517-4.672-1.994-6.265c-3.232-3.485-8.408-2.773-8.658-2.787l-1.228,0.157
		l-25.772,3.513v27.82l0.218,0.133c7.07,4.277,10.735,8.147,12.564,12.182c1.988,4.383,2.305,7.795,2.307,7.828
		c0.432,7.893,2.887,9.023,4.23,9.023c0.177,0,0.328,0.004,0.354,0.004c4.685,0,6.021-4.521,6.097-4.787
		c1.43-4.771-0.573-13.687-1.145-16.01c0,0,12.455-0.004,12.487-0.004c3.255,0,5.901-2.553,6.241-5.814
		c0.01-0.08,0.02-0.158,0.023-0.233C85.475,63.131,85.509,62.982,85.509,62.824z"/>
	<circle fill="#FFFFFF" cx="30.299" cy="56.587" r="3.045"/>
</g>
</svg>
