<?xml version="1.0" encoding="utf-8"?>
<!-- Generator: Adobe Illustrator 16.0.0, SVG Export Plug-In . SVG Version: 6.00 Build 0)  -->
<!DOCTYPE svg PUBLIC "-//W3C//DTD SVG 1.1//EN" "http://www.w3.org/Graphics/SVG/1.1/DTD/svg11.dtd">
<svg version="1.1" id="Layer_1" xmlns="http://www.w3.org/2000/svg" xmlns:xlink="http://www.w3.org/1999/xlink" x="0px" y="0px"
	 width="110px" height="110px" viewBox="0 0 110 110" enable-background="new 0 0 110 110" xml:space="preserve">
<g>
	<g>
		<path fill="#FFFFFF" d="M55,110C24.673,110,0,85.324,0,55C0,24.674,24.673,0,55,0s55,24.674,55,55C110,85.324,85.327,110,55,110z"
			/>
		<path fill="#555759" d="M55,7.387c-26.254,0-47.612,21.359-47.612,47.612c0,26.254,21.358,47.61,47.612,47.61
			s47.612-21.356,47.612-47.61C102.613,28.746,81.254,7.387,55,7.387z"/>
	</g>
	<path fill="#FFFFFF" d="M56.669,52.01V35.134c5.119,0.774,6.205,3.566,8.919,3.566c1.706,0,2.947-1.396,2.947-3.023
		c0-3.257-5.662-5.972-11.866-6.438v-3.645c0-0.931-0.621-1.629-1.629-1.629s-1.628,0.698-1.628,1.629v3.645
		c-9.308,0.854-14.735,8.066-14.735,14.193c0,9.658,7.62,12.158,14.655,14.554v16.875c-5.119-0.774-6.205-3.566-8.919-3.566
		c-1.706,0-2.947,1.396-2.947,3.023c0,3.258,5.662,5.974,11.866,6.439v3.645c0,0.933,0.621,1.629,1.629,1.629
		c1.009,0,1.628-0.696,1.628-1.629v-3.645c9.308-0.855,14.736-8.066,14.736-14.193C71.325,56.904,63.705,54.408,56.669,52.01z
		 M45.966,42.967c0-4.267,3.102-7.29,7.445-7.833v15.744C49.146,49.249,45.966,47.233,45.966,42.967z M56.589,74.861V59.117
		c4.267,1.631,7.445,3.646,7.445,7.912C64.035,71.295,60.934,74.318,56.589,74.861z"/>
</g>
</svg>
