<?xml version="1.0" encoding="utf-8"?>
<!-- Generator: Adobe Illustrator 16.0.0, SVG Export Plug-In . SVG Version: 6.00 Build 0)  -->
<!DOCTYPE svg PUBLIC "-//W3C//DTD SVG 1.1//EN" "http://www.w3.org/Graphics/SVG/1.1/DTD/svg11.dtd">
<svg version="1.1" id="Layer_1" xmlns="http://www.w3.org/2000/svg" xmlns:xlink="http://www.w3.org/1999/xlink" x="0px" y="0px"
	 width="110px" height="110px" viewBox="0 0 110 110" enable-background="new 0 0 110 110" xml:space="preserve">
<g>
	<g>
		<path fill="#FFFFFF" d="M55,110C24.673,110,0,85.324,0,55C0,24.674,24.673,0,55,0s55,24.674,55,55C110,85.324,85.327,110,55,110z"
			/>
		<path fill="#74BF44" d="M55,7.387c-26.254,0-47.612,21.359-47.612,47.612c0,26.254,21.358,47.61,47.612,47.61
			s47.612-21.356,47.612-47.61C102.613,28.746,81.254,7.387,55,7.387z"/>
	</g>
</g>
<g>
	<path fill="#FFFFFF" d="M34.475,78.885h-8.431c-1.424,0-2.588-1.166-2.588-2.589V49.12c0-1.422,1.165-2.589,2.588-2.589h8.431
		c1.423,0,2.588,1.167,2.588,2.589v27.176C37.063,77.719,35.898,78.885,34.475,78.885z"/>
	<path fill="#FFFFFF" d="M85.446,47.128c0,0.983-0.229,1.908-0.608,2.744c0.012,0.018,0.023,0.036,0.037,0.053
		c1.258,1.187,2.081,3.013,2.081,5.089c0,2.884-1.572,5.3-3.729,6.136c-0.009,0.006-0.02,0.016-0.025,0.02
		c0.017,0.031,0.023,0.07,0.039,0.105c0.611,1.051,0.978,2.326,0.978,3.709c0,3.184-1.905,5.814-4.407,6.359
		c-0.043,0.02-0.103,0.055-0.135,0.069c0.155,2.321-0.516,4.67-1.992,6.263c-3.231,3.482-8.404,2.771-8.654,2.785l-1.228-0.156
		L42.04,76.793V48.985l0.217-0.132c7.067-4.276,10.73-8.145,12.56-12.177c1.988-4.38,2.303-7.792,2.305-7.825
		c0.431-7.888,2.884-9.02,4.229-9.02c0.176,0,0.327-0.004,0.355-0.004c4.682,0,6.02,4.521,6.093,4.785
		c1.429,4.77-0.573,13.681-1.143,16.003c0,0,12.448,0.004,12.481,0.004c3.254,0,5.899,2.551,6.239,5.813
		c0.009,0.08,0.019,0.158,0.022,0.235C85.411,46.823,85.446,46.97,85.446,47.128z"/>
	<circle fill="#74BF44" cx="30.26" cy="53.364" r="3.044"/>
</g>
</svg>
