<?xml version="1.0" encoding="utf-8"?>
<!-- Generator: Adobe Illustrator 16.0.0, SVG Export Plug-In . SVG Version: 6.00 Build 0)  -->
<!DOCTYPE svg PUBLIC "-//W3C//DTD SVG 1.1//EN" "http://www.w3.org/Graphics/SVG/1.1/DTD/svg11.dtd">
<svg version="1.1" id="Layer_1" xmlns="http://www.w3.org/2000/svg" xmlns:xlink="http://www.w3.org/1999/xlink" x="0px" y="0px"
	 width="110px" height="110px" viewBox="0 0 110 110" enable-background="new 0 0 110 110" xml:space="preserve">
<g>
	<g>
		<path fill="#FFFFFF" d="M55,110C24.672,110,0,85.324,0,55C0,24.674,24.672,0,55,0c30.325,0,55,24.674,55,55
			C110,85.324,85.326,110,55,110z"/>
		<path fill="#FCB813" d="M55,7.388C28.746,7.388,7.388,28.746,7.388,55S28.746,102.611,55,102.611S102.611,81.254,102.611,55
			S81.254,7.388,55,7.388z"/>
	</g>
	<path fill="#FFFFFF" d="M57.793,64.15c0,2.25-1.316,3.646-3.412,3.646c-2.094,0-3.412-1.396-3.412-3.646v-8.763
		c0-3.49,0.078-4.11,5.43-5.196c6.127-1.241,7.136-5.506,7.136-8.375c0-5.274-3.802-8.532-8.997-8.532
		c-4.109,0-7.289,1.476-8.996,6.36c-0.699,2.017-1.629,2.56-3.024,2.56c-1.785,0-3.413-1.396-3.335-3.568
		c0.311-6.825,7.911-11.711,15.124-11.711c9.383,0,16.52,6.05,16.52,14.271c0,8.376-5.273,13.572-13.03,15.201v7.754H57.793
		L57.793,64.15z M54.381,75.163c2.172,0,3.955,1.784,3.955,3.957c0,2.17-1.783,3.954-3.955,3.954s-3.955-1.784-3.955-3.954
		C50.426,76.947,52.209,75.163,54.381,75.163z"/>
</g>
</svg>
