<?xml version="1.0" encoding="utf-8"?>
<!-- Generator: Adobe Illustrator 16.0.0, SVG Export Plug-In . SVG Version: 6.00 Build 0)  -->
<!DOCTYPE svg PUBLIC "-//W3C//DTD SVG 1.1//EN" "http://www.w3.org/Graphics/SVG/1.1/DTD/svg11.dtd">
<svg version="1.1" id="Layer_1" xmlns="http://www.w3.org/2000/svg" xmlns:xlink="http://www.w3.org/1999/xlink" x="0px" y="0px"
	 width="110px" height="110px" viewBox="0 0 110 110" enable-background="new 0 0 110 110" xml:space="preserve">
<g>
	<g>
		<path fill="#FFFFFF" d="M55.017,110c-30.328,0-55-24.676-55-55c0-30.326,24.672-55,55-55c30.325,0,55,24.674,55,55
			C110.018,85.324,85.343,110,55.017,110z"/>
		<path fill="#00BFF2" d="M55.017,7.388C28.763,7.388,7.404,28.746,7.404,55s21.356,47.611,47.612,47.611
			c26.253,0,47.612-21.357,47.612-47.611S81.271,7.388,55.017,7.388z"/>
	</g>
</g>
<g>
	<g>
		<path fill="#FFFFFF" d="M87.165,60.391c-0.002-1.115-0.322-2.881-0.713-3.922L75.818,28.113c-0.392-1.042-1.621-1.896-2.734-1.896
			h-6.725c-1.114,0-2.025,0.912-2.025,2.024v3.269c0,1.115,0.911,2.024,2.025,2.024l3.882,0.001c1.114,0.001,1.155,0.868,1.5,1.931
			l6.771,20.973c0.344,1.061-0.287,1.926-1.402,1.926H65.975c-1.115,0-2.47,0.799-3.012,1.771l-2.109,3.791
			c-0.543,0.973-1.896,1.77-3.013,1.77h-5.967c-1.113,0-2.441-0.811-2.947-1.805L47.03,60.18c-0.506-0.992-1.833-1.806-2.947-1.806
			h-11.15c-1.114,0-1.745-0.866-1.403-1.927l6.78-20.992c0.342-1.062,0.385-1.927,1.499-1.927l3.882,0.001
			c1.113,0,2.025-0.911,2.025-2.025v-3.261c0-1.114-0.912-2.024-2.025-2.024h-6.734c-1.114,0-2.346,0.854-2.738,1.896L23.565,56.479
			c-0.392,1.043-0.712,2.81-0.712,3.924v17.203c0,1.113,0.911,2.024,2.025,2.024l60.279-0.017c1.112,0,2.024-0.912,2.021-2.025
			L87.165,60.391z"/>
	</g>
	<g>
		<path fill="#FFFFFF" d="M50.051,36.985c0,1.115,0.525,0.589-0.588,0.589h-8.387c-1.114,0-1.43,0.689-0.701,1.532l13.17,15.237
			c0.728,0.844,1.921,0.843,2.648,0l13.166-15.237c0.728-0.843,0.412-1.532-0.701-1.532h-8.391c-1.112,0-0.591,0.525-0.591-0.589
			V22.863c0-1.113-0.909-2.025-2.024-2.025h-5.576c-1.114,0-2.025,0.912-2.025,2.025V36.985z"/>
	</g>
</g>
</svg>
