<?xml version="1.0" encoding="utf-8"?>
<!-- Generator: Adobe Illustrator 25.4.1, SVG Export Plug-In . SVG Version: 6.00 Build 0)  -->
<svg version="1.1" id="Layer_1" xmlns="http://www.w3.org/2000/svg" xmlns:xlink="http://www.w3.org/1999/xlink" x="0px" y="0px"
	 viewBox="0 0 110 110" enable-background="new 0 0 110 110" xml:space="preserve">
<g>
	<g>
		<path fill="#FFFFFF" d="M55,110C24.674,110,0,85.326,0,54.999C0,24.672,24.674,0,55,0c30.327,0,55,24.672,55,54.999
			C110,85.326,85.327,110,55,110z"/>
		<path fill="#FBB716" d="M55,7.386c-26.253,0-47.612,21.36-47.612,47.612c0,26.254,21.358,47.615,47.612,47.615
			s47.612-21.36,47.612-47.615C102.612,28.746,81.254,7.386,55,7.386z"/>
	</g>
	<g>
		<g>
			<path fill="#FFFFFF" d="M92.273,48.182l-3.013-9.374l-7.7,0.792c-1.051-1.803-2.238-3.459-3.584-4.957l3.164-7.059l-7.955-5.818
				l-5.767,5.162c-1.847-0.83-3.804-1.479-5.793-1.904l-1.59-7.592l-9.855-0.02l-1.645,7.562c-0.98,0.211-1.96,0.48-2.936,0.795
				c-1.004,0.32-1.961,0.67-2.86,1.076l-5.753-5.182l-7.979,5.77l3.117,7.082c-1.363,1.523-2.561,3.16-3.602,4.912l-7.705-0.812
				l-3.064,9.346l6.7,3.896c-0.22,2.002-0.218,4.059-0.034,6.122l-6.697,3.854l3.004,9.359l7.709-0.771
				c1.028,1.789,2.218,3.441,3.562,4.943l-3.155,7.078l7.945,5.801l5.792-5.15c1.847,0.825,3.797,1.452,5.79,1.903l1.609,7.562
				l9.833,0.029l1.646-7.561c0.981-0.209,1.974-0.471,2.956-0.783c0.97-0.311,1.922-0.678,2.859-1.086l5.731,5.174l7.981-5.751
				l-3.115-7.078c1.359-1.528,2.552-3.183,3.579-4.931l7.703,0.812l3.081-9.353l-6.681-3.903c0.199-1.998,0.207-4.034,0.019-6.09
				L92.273,48.182z"/>
			<path fill="#FBB718" d="M61.361,74.829c-10.95,3.519-22.679-2.515-26.193-13.464c-3.517-10.951,2.513-22.684,13.463-26.195
				c10.952-3.514,22.68,2.516,26.194,13.465C78.341,59.59,72.312,71.314,61.361,74.829z"/>
			<path fill="#FFFFFF" d="M49.957,39.307C41.293,42.088,36.519,51.37,39.301,60.04c2.783,8.668,12.066,13.438,20.735,10.657
				c8.666-2.784,13.439-12.067,10.657-20.738C67.909,41.292,58.625,36.523,49.957,39.307z M59.263,68.292
				c-7.342,2.354-15.199-1.685-17.556-9.022c-2.354-7.341,1.683-15.203,9.026-17.554c7.338-2.358,15.196,1.682,17.554,9.021
				C70.641,58.076,66.604,65.938,59.263,68.292z"/>
		</g>
	</g>
</g>
</svg>
