<?xml version="1.0" encoding="utf-8"?>
<!-- Generator: Adobe Illustrator 16.0.0, SVG Export Plug-In . SVG Version: 6.00 Build 0)  -->
<!DOCTYPE svg PUBLIC "-//W3C//DTD SVG 1.1//EN" "http://www.w3.org/Graphics/SVG/1.1/DTD/svg11.dtd">
<svg version="1.1" id="Layer_1" xmlns="http://www.w3.org/2000/svg" xmlns:xlink="http://www.w3.org/1999/xlink" x="0px" y="0px"
	 width="110px" height="110px" viewBox="0 0 110 110" enable-background="new 0 0 110 110" xml:space="preserve">
<g>
	<g>
		<path fill="#FFFFFF" d="M55,110C24.673,110,0,85.326,0,55C0,24.675,24.673,0,55,0s55,24.675,55,55C110,85.326,85.327,110,55,110z"
			/>
		<path fill="#515151" d="M55,7.387C28.746,7.387,7.388,28.746,7.388,55c0,26.254,21.358,47.614,47.612,47.614
			S102.612,81.254,102.612,55C102.613,28.748,81.254,7.387,55,7.387z"/>
	</g>
	<g>
		<path fill="#FFFFFF" d="M58.714,16.693c0,2.028-1.641,3.666-3.666,3.666c-2.023,0-3.662-1.638-3.662-3.666
			c0-2.024,1.639-3.664,3.662-3.664C57.073,13.029,58.714,14.668,58.714,16.693z"/>
		<path fill="#FFFFFF" d="M96.962,55.029c0,2.026-1.639,3.665-3.665,3.665c-2.023,0-3.664-1.639-3.664-3.665
			c0-2.026,1.641-3.666,3.664-3.666C95.323,51.363,96.962,53.002,96.962,55.029z"/>
		<circle fill="#FFFFFF" cx="55.051" cy="93.31" r="3.665"/>
		<path fill="#FFFFFF" d="M20.369,55.029c0,2.026-1.64,3.665-3.665,3.665c-2.023,0-3.665-1.639-3.665-3.665
			c0-2.026,1.642-3.666,3.665-3.666C18.729,51.363,20.369,53.002,20.369,55.029z"/>
	</g>
	<path fill="#FFFFFF" d="M73.34,25.185c-0.352-0.223-0.822-0.125-1.049,0.229L52.394,56.289c-0.193,0.299-0.151,0.693,0.1,0.947
		l13.421,13.484c0.147,0.15,0.344,0.225,0.538,0.225c0.193,0,0.387-0.074,0.535-0.223c0.298-0.295,0.299-0.775,0.003-1.072
		L54,56.596l19.567-30.36C73.794,25.883,73.692,25.414,73.34,25.185z"/>
</g>
</svg>
