<?xml version="1.0" encoding="utf-8"?>
<!-- Generator: Adobe Illustrator 16.0.0, SVG Export Plug-In . SVG Version: 6.00 Build 0)  -->
<!DOCTYPE svg PUBLIC "-//W3C//DTD SVG 1.1//EN" "http://www.w3.org/Graphics/SVG/1.1/DTD/svg11.dtd">
<svg version="1.1" id="Layer_1" xmlns="http://www.w3.org/2000/svg" xmlns:xlink="http://www.w3.org/1999/xlink" x="0px" y="0px"
	 width="110px" height="110px" viewBox="0 0 110 110" enable-background="new 0 0 110 110" xml:space="preserve">
<g>
	<g>
		<path fill="#FFFFFF" d="M55,110C24.674,110,0,85.326,0,54.999C0,24.672,24.674,0,55,0c30.327,0,55,24.672,55,54.999
			C110,85.326,85.327,110,55,110z"/>
		<path fill="#FCB813" d="M55,7.387c-26.253,0-47.612,21.36-47.612,47.612c0,26.255,21.358,47.614,47.612,47.614
			s47.612-21.359,47.612-47.614C102.612,28.747,81.254,7.387,55,7.387z"/>
	</g>
</g>
<g>
	<path fill="#FFFFFF" d="M27.432,80.115c-5.508,0-7.761-3.904-5.007-8.674l27.568-47.75c2.754-4.77,7.261-4.77,10.015,0
		l27.568,47.75c2.753,4.77,0.5,8.674-5.008,8.674H27.432z"/>
	<g>
		<path fill="#FCB813" d="M55,72.473c-1.925,0-3.377-1.406-3.377-3.27c0-1.912,1.452-3.316,3.377-3.316s3.377,1.404,3.377,3.268
			C58.377,71.066,56.925,72.473,55,72.473z M54.973,60.963c-0.838,0-1.391-0.568-1.478-1.52l-1.901-22.156
			c-0.047-0.563,0.097-1.06,0.405-1.395c0.253-0.275,0.606-0.421,1.019-0.421h3.91c0.43,0,0.799,0.154,1.065,0.445
			c0.312,0.339,0.458,0.826,0.412,1.371l-1.9,22.156C56.42,60.381,55.834,60.963,54.973,60.963z"/>
	</g>
</g>
</svg>
