<?xml version="1.0" encoding="utf-8"?>
<!-- Generator: Adobe Illustrator 16.0.0, SVG Export Plug-In . SVG Version: 6.00 Build 0)  -->
<!DOCTYPE svg PUBLIC "-//W3C//DTD SVG 1.1//EN" "http://www.w3.org/Graphics/SVG/1.1/DTD/svg11.dtd">
<svg version="1.1" id="Layer_1" xmlns="http://www.w3.org/2000/svg" xmlns:xlink="http://www.w3.org/1999/xlink" x="0px" y="0px"
	 width="110px" height="110px" viewBox="0 0 110 110" enable-background="new 0 0 110 110" xml:space="preserve">
<g>
	<g>
		<path fill="#FFFFFF" d="M55,110C24.673,110,0,85.326,0,55C0,24.675,24.673,0,55,0s55,24.675,55,55C110,85.326,85.327,110,55,110z"
			/>
		<path fill="#F37920" d="M55,7.387C28.746,7.387,7.388,28.746,7.388,55S28.746,102.613,55,102.613S102.612,81.254,102.612,55
			C102.613,28.748,81.254,7.387,55,7.387z"/>
	</g>
</g>
<g>
	<path fill="#FFFFFF" d="M34.475,31.043h-8.431c-1.424,0-2.588,1.166-2.588,2.588v27.175c0,1.424,1.165,2.59,2.588,2.59h8.431
		c1.423,0,2.588-1.166,2.588-2.59V33.631C37.063,32.209,35.898,31.043,34.475,31.043z"/>
	<path fill="#FFFFFF" d="M85.447,62.799c0-0.982-0.229-1.908-0.609-2.744c0.014-0.018,0.024-0.035,0.038-0.053
		c1.257-1.188,2.081-3.014,2.081-5.089c0-2.885-1.572-5.3-3.729-6.137c-0.011-0.006-0.021-0.015-0.027-0.019
		c0.018-0.031,0.023-0.071,0.04-0.105c0.61-1.051,0.977-2.326,0.977-3.709c0-3.184-1.903-5.815-4.407-6.359
		c-0.041-0.022-0.102-0.057-0.134-0.071c0.154-2.321-0.516-4.67-1.993-6.262c-3.229-3.484-8.403-2.771-8.653-2.786l-1.229,0.157
		L42.04,33.133v27.808l0.218,0.133c7.066,4.275,10.73,8.146,12.56,12.177c1.989,4.38,2.303,7.792,2.305,7.825
		c0.431,7.889,2.885,9.02,4.229,9.02c0.18,0,0.328,0.004,0.357,0.004c4.682,0,6.018-4.52,6.092-4.783
		c1.43-4.77-0.572-13.682-1.142-16.004c0,0,12.448-0.004,12.481-0.004c3.254,0,5.898-2.551,6.238-5.812
		c0.01-0.08,0.02-0.157,0.021-0.233C85.412,63.104,85.447,62.957,85.447,62.799z"/>
	<circle fill="#F37920" cx="30.26" cy="56.563" r="3.044"/>
</g>
</svg>
