<?xml version="1.0" encoding="utf-8"?>
<!-- Generator: Adobe Illustrator 16.0.0, SVG Export Plug-In . SVG Version: 6.00 Build 0)  -->
<!DOCTYPE svg PUBLIC "-//W3C//DTD SVG 1.1//EN" "http://www.w3.org/Graphics/SVG/1.1/DTD/svg11.dtd">
<svg version="1.1" id="Layer_1" xmlns="http://www.w3.org/2000/svg" xmlns:xlink="http://www.w3.org/1999/xlink" x="0px" y="0px"
	 width="110px" height="110px" viewBox="0 0 110 110" enable-background="new 0 0 110 110" xml:space="preserve">
<g>
	<path fill="#FFFFFF" d="M55,7.381C28.742,7.381,7.38,28.743,7.38,55c0,26.258,21.362,47.621,47.62,47.621
		c26.259,0,47.62-21.363,47.62-47.621C102.62,28.743,81.259,7.381,55,7.381z"/>
</g>
<g>
	<path fill="#515151" d="M55.013,109.974c-30.319,0-54.987-24.668-54.987-54.987S24.694,0,55.013,0S110,24.667,110,54.986
		S85.332,109.974,55.013,109.974z M55.013,7.385c-26.247,0-47.601,21.354-47.601,47.601c0,26.248,21.354,47.601,47.601,47.601
		c26.248,0,47.601-21.353,47.601-47.601C102.614,28.739,81.261,7.385,55.013,7.385z"/>
</g>
<g>
	<path fill="#515151" d="M34.516,31.057h-8.435c-1.424,0-2.589,1.166-2.589,2.589v27.188c0,1.423,1.165,2.59,2.589,2.59h8.435
		c1.424,0,2.589-1.167,2.589-2.59V33.646C37.105,32.223,35.94,31.057,34.516,31.057z"/>
	<path fill="#515151" d="M85.509,62.825c0-0.984-0.229-1.909-0.608-2.745c0.012-0.018,0.023-0.035,0.037-0.054
		c1.258-1.187,2.082-3.014,2.082-5.09c0-2.887-1.573-5.303-3.731-6.14c-0.009-0.006-0.02-0.015-0.026-0.019
		c0.017-0.032,0.023-0.071,0.04-0.106c0.611-1.051,0.977-2.327,0.977-3.71c0-3.185-1.905-5.817-4.409-6.361
		c-0.042-0.022-0.102-0.057-0.134-0.071c0.155-2.322-0.516-4.672-1.994-6.265c-3.232-3.485-8.408-2.773-8.658-2.787l-1.228,0.157
		l-25.772,3.513v27.82l0.218,0.132c7.07,4.278,10.735,8.148,12.564,12.183c1.989,4.381,2.305,7.794,2.307,7.828
		c0.431,7.891,2.886,9.023,4.23,9.023c0.177,0,0.328,0.004,0.356,0.004c4.684,0,6.021-4.521,6.095-4.787
		c1.43-4.771-0.573-13.687-1.143-16.01c0,0,12.455-0.004,12.487-0.004c3.255,0,5.902-2.552,6.242-5.815
		c0.009-0.08,0.019-0.157,0.024-0.234C85.475,63.131,85.509,62.983,85.509,62.825z"/>
	<circle fill="#FFFFFF" cx="30.299" cy="56.587" r="3.045"/>
</g>
</svg>
