<svg id="Layer_1" data-name="Layer 1" xmlns="http://www.w3.org/2000/svg" viewBox="0 0 32 32"><path d="M15.78,4.84c3.51,0,3.92,0,5.31.08a7.32,7.32,0,0,1,2.44.45,4.11,4.11,0,0,1,1.51,1,4,4,0,0,1,1,1.52,7.19,7.19,0,0,1,.46,2.44c.06,1.38.07,1.8.07,5.31s0,3.92-.07,5.31A7.25,7.25,0,0,1,26,23.37a4.32,4.32,0,0,1-2.49,2.49,7.25,7.25,0,0,1-2.44.46c-1.39.06-1.8.07-5.31.07s-3.93,0-5.31-.07A7.19,7.19,0,0,1,8,25.86a4,4,0,0,1-1.52-1,4.11,4.11,0,0,1-1-1.51,7.32,7.32,0,0,1-.45-2.44C5,19.54,5,19.13,5,15.62s0-3.93.08-5.31a7.26,7.26,0,0,1,.45-2.44A4.28,4.28,0,0,1,8,5.37a7.26,7.26,0,0,1,2.44-.45c1.38-.06,1.8-.08,5.31-.08m0-2.37c-3.57,0-4,0-5.42.08a9.9,9.9,0,0,0-3.19.61A6.76,6.76,0,0,0,3.32,7a9.9,9.9,0,0,0-.61,3.19c-.06,1.4-.08,1.85-.08,5.42s0,4,.08,5.42a10,10,0,0,0,.61,3.19,6.56,6.56,0,0,0,1.52,2.33,6.31,6.31,0,0,0,2.33,1.51,9.39,9.39,0,0,0,3.19.61c1.4.07,1.85.08,5.42.08s4,0,5.42-.08a9.44,9.44,0,0,0,3.19-.61,6.65,6.65,0,0,0,3.84-3.84A9.44,9.44,0,0,0,28.84,21c.07-1.4.08-1.85.08-5.42s0-4-.08-5.42A9.39,9.39,0,0,0,28.23,7a6.31,6.31,0,0,0-1.51-2.33,6.56,6.56,0,0,0-2.33-1.52,10,10,0,0,0-3.19-.61c-1.4-.06-1.85-.08-5.42-.08Z" fill="#565759"/><path d="M15.78,8.87a6.75,6.75,0,1,0,6.75,6.75A6.75,6.75,0,0,0,15.78,8.87Zm0,11.13a4.38,4.38,0,1,1,4.38-4.38A4.38,4.38,0,0,1,15.78,20Z" fill="#565759"/><circle cx="22.79" cy="8.6" r="1.58" fill="#565759"/></svg>