<svg id="Layer_1" data-name="Layer 1" xmlns="http://www.w3.org/2000/svg" viewBox="0 0 32 32"><path d="M16,4A11.54,11.54,0,1,0,27.53,15.55,11.54,11.54,0,0,0,16,4ZM12.42,7.88a.61.61,0,0,1,.36,0A.73.73,0,0,1,13,8c.08.08.15.18.22.26.33.62.67,1.37,1,2.22.1.24.21.49.31.76a.64.64,0,0,1-.2.85c-.39.21-.54.27-.88.44L12,9.15l-.39-.91A6.29,6.29,0,0,1,12.42,7.88Zm8.52,14.93a1.72,1.72,0,0,1-1.08.33,13.16,13.16,0,0,1-2.17-.84,17.53,17.53,0,0,1-1.93-1.12,13.67,13.67,0,0,1-3-2.73A15.83,15.83,0,0,1,9.49,11,1.54,1.54,0,0,1,9.9,9.78a4.46,4.46,0,0,1,1.22-1.15h0v0l1.79,4.1a1.11,1.11,0,0,0-.36.18.53.53,0,0,0,0,.59,14,14,0,0,0,4.77,5.74.53.53,0,0,0,.55,0,.57.57,0,0,0,.18-.12l4,2.86A9.63,9.63,0,0,1,20.94,22.81Zm1.56-1.24-4.12-2.93a.86.86,0,0,1,.1-.16c.3-.43.5-.92,1.12-.66a21.33,21.33,0,0,1,2.8,1.9c.26.2.63.41.67.76S22.76,21.28,22.5,21.57Z" fill="#565759"/></svg>